<?xml version="1.0" encoding="utf-8"?>
<!-- Generator: Adobe Illustrator 19.0.0, SVG Export Plug-In . SVG Version: 6.00 Build 0)  -->
<svg version="1.1" id="Layer_1" xmlns="http://www.w3.org/2000/svg" xmlns:xlink="http://www.w3.org/1999/xlink" x="0px" y="0px"
	 viewBox="0 0 120 121.2" style="enable-background:new 0 0 120 121.2;" xml:space="preserve">
<style type="text/css">
	.st0{fill:#FFFFFF;}
</style>
<g id="XMLID_1_">
	<path id="XMLID_24_" class="st0" d="M46.6,42.3c-0.2-1.4-0.4-2.8-0.5-4.3c-0.1-2.1,0.1-4.1,0.8-6.1c1.1-2.9,2.7-5.6,5-7.8
		c1.5-1.4,3.2-2.5,5.2-3.1c0.3-0.1,0.4-0.2,0.4-0.5c0-2.7,0-5.4,0-8.1c0-0.3-0.1-0.4-0.4-0.4c-1.8,0-3.7,0-5.5,0
		c-1.5,0-2.6-1-2.7-2.5c-0.1-1.3,0.8-2.5,2.2-2.7c0.2,0,0.4,0,0.6,0c1.8,0,3.6,0,5.4,0c0.4,0,0.5-0.1,0.5-0.5c0-1.2,0-2.5,0-3.7
		c0-1.6,1.3-2.8,2.8-2.8c1.4,0.1,2.5,1.3,2.5,2.8c0,1.2,0,2.3,0,3.5c0,0.6,0,0.6,0.6,0.6c1.8,0,3.6,0,5.4,0c1.1,0,1.9,0.5,2.4,1.5
		c0.5,1,0.3,1.9-0.4,2.8c-0.5,0.6-1.2,0.9-2,0.9c-1.8,0-3.6,0-5.5,0c-0.4,0-0.5,0.1-0.5,0.5c0,2.6,0,5.3,0,8c0,0.2,0,0.4,0.3,0.5
		c2.4,0.7,4.3,2,6,3.8c2,2.2,3.5,4.7,4.5,7.6c0.6,1.8,0.7,3.6,0.6,5.5c0,0.7-0.1,1.4-0.2,2.2c0,0.1-0.1,0.2,0,0.3
		c0.1,0.1,0.2-0.1,0.3-0.1c2.9-1.9,6-3.4,9.3-4.5c2.5-0.8,5.1-1.3,7.7-1.5c5.2-0.4,10.1,0.4,14.8,2.7c3.5,1.7,6.5,4.1,8.9,7.1
		c1.1,1.3,2.1,2.7,2.9,4.2c1.2,2.5,1.9,5.1,2.1,7.8c0.3,3.9-0.6,7.5-2.2,11c-1.4,3.1-3.4,5.8-5.7,8.2c-4.2,4.5-9.1,8.2-14.4,11.2
		c-0.4,0.2-0.5,0.4-0.5,0.8c0,7.3,0,14.6,0,21.9c0,1.1-0.5,1.9-1.4,2.5c-5.1,3.1-10.6,5.3-16.3,6.8c-3.5,0.9-7,1.5-10.6,2
		c-2,0.2-4,0.4-6.1,0.5c-1.7,0.1-3.4,0.2-5.1,0.1c-2.7,0-5.4-0.2-8.1-0.4c-3.5-0.3-6.9-0.9-10.3-1.6c-4.3-1-8.4-2.3-12.4-4.1
		c-2.1-1-4.2-2.1-6.1-3.3c-0.9-0.6-1.3-1.4-1.3-2.5c0-7.8,0-15.6,0-23.4c0,0,0,0,0,0c0.1-0.5-0.1-0.7-0.5-1c-3.7-2.2-7-4.7-10-7.7
		c-3.1-3-5.6-6.5-7.3-10.5c-0.9-2.3-1.5-4.6-1.6-7c-0.2-3.9,0.7-7.6,2.3-11.1c1.3-2.8,2.9-5.4,5-7.6c3.3-3.4,7.3-5.5,12-6.3
		c4.6-0.9,9.2-0.4,13.7,0.9c4.7,1.4,9.1,3.6,13.1,6.5C46.2,42.1,46.3,42.3,46.6,42.3z M62.8,69.1c0,0.3,0,0.6,0,0.9
		c0,1.5,0,3.1,0,4.6c0,0.4,0.1,0.5,0.5,0.5c0.3,0,0.6,0,0.9,0.1c2,0.1,4,0.3,6.1,0.5c3.2,0.4,6.4,0.9,9.5,1.6
		c4.9,1.1,9.7,2.6,14.3,4.9c0.4,0.2,0.7,0.2,1.1,0c3.7-2.2,7.2-4.6,10.3-7.5c2.7-2.4,5.1-5.1,6.9-8.3c1.6-2.9,2.6-6,2.4-9.4
		c-0.2-2.7-0.9-5.2-2.4-7.4c-2.3-3.3-5.1-6-8.8-7.8c-3.7-1.8-7.7-2.4-11.8-2.1c-2.8,0.2-5.4,0.8-8,1.8c-5,1.9-9.2,4.8-12.9,8.6
		c-3.5,3.7-6.2,8-7.9,12.7c-0.2,0.4-0.2,0.8-0.2,1.2C62.8,65.7,62.8,67.4,62.8,69.1z M57.5,69.2c0-1.5,0-2.9,0-4.4
		c0-0.9-0.2-1.7-0.6-2.5c-3.4-6.4-8-11.8-13.9-16.1c-3.7-2.7-7.7-4.7-12.2-5.8c-3.5-0.9-7-1.2-10.5-0.6c-3.4,0.6-6.3,2.1-8.8,4.5
		c-2.2,2.1-3.6,4.6-4.8,7.4c-1.1,2.5-1.6,5.2-1.4,7.9c0.2,2.8,1.1,5.3,2.5,7.7c2,3.4,4.7,6.2,7.7,8.7c2.4,2,5.1,3.8,7.8,5.3
		c0.3,0.2,0.6,0.3,1,0.1c2.6-1.2,5.2-2.1,8-2.9c5-1.5,10.2-2.4,15.4-2.9c3.1-0.3,6.2-0.5,9.4-0.5c0.4,0,0.4-0.1,0.4-0.5
		C57.5,72.8,57.5,71,57.5,69.2z M27.9,109.7c0.2,0.1,0.2,0.1,0.3,0.1c2.4,1.1,4.8,2,7.3,2.8c3.7,1.2,7.5,2,11.4,2.5
		c2.8,0.4,5.6,0.7,8.4,0.7c4.3,0.1,8.6,0,12.9-0.5c3.3-0.4,6.5-1,9.7-1.8c3.6-0.9,7.1-2.1,10.4-3.7c0.1-0.1,0.3-0.1,0.3-0.2
		c-0.1,0-0.1-0.1-0.2-0.1c-2.2-0.9-4.4-1.6-6.7-2.2c-4.6-1.3-9.4-2.1-14.2-2.5c-2.5-0.2-5-0.4-7.5-0.4c-2.7-0.1-5.5,0-8.2,0.2
		c-2.8,0.2-5.6,0.5-8.4,0.9c-4.7,0.7-9.3,1.8-13.7,3.4C29.3,109.1,28.7,109.4,27.9,109.7z M92,90.1c0-0.9,0-1.8,0-2.6
		c0-0.4-0.1-0.6-0.4-0.7c-3.5-1.7-7.1-2.9-10.8-3.9c-4-1-8.1-1.7-12.2-2.1c-2.7-0.3-5.3-0.4-8-0.5c-2.9-0.1-5.8,0-8.6,0.2
		c-2.3,0.2-4.7,0.4-7,0.7c-4.4,0.6-8.8,1.6-13.1,3c-2.3,0.7-4.5,1.6-6.7,2.7c-0.2,0.1-0.4,0.2-0.4,0.4c0,1.9,0,3.8,0,5.7
		c0,0.3,0.1,0.3,0.3,0.2c0.4-0.2,0.8-0.3,1.1-0.5c5.3-2.1,10.8-3.5,16.4-4.4c3.8-0.6,7.6-1,11.5-1.1c2.3-0.1,4.5-0.1,6.8,0
		c2.3,0.1,4.6,0.2,6.9,0.4c3,0.3,5.9,0.7,8.8,1.2c5.1,1,10.1,2.3,14.9,4.4c0.3,0.1,0.3,0,0.3-0.2C92,91.9,92,91,92,90.1z M58.4,92.3
		c-1.4,0-2.8,0-4.1,0.1c-2.6,0.1-5.2,0.3-7.8,0.6c-3.1,0.4-6.2,0.9-9.3,1.6c-4.1,1-8.2,2.3-12,4.2c-0.3,0.1-0.4,0.3-0.4,0.6
		c0,1.8,0,3.5,0,5.3c0,0.5,0,0.5,0.5,0.3c2.2-0.9,4.4-1.7,6.7-2.4c5.2-1.5,10.5-2.5,15.8-3c2.5-0.3,5-0.4,7.5-0.5c4-0.1,8,0,12,0.3
		c2.8,0.3,5.6,0.6,8.4,1.1c5.4,1,10.7,2.4,15.7,4.5c0.3,0.1,0.4,0.1,0.4-0.3c0-1.8,0-3.7,0-5.5c0-0.3-0.1-0.4-0.4-0.5
		c-1.9-0.9-3.8-1.7-5.8-2.4c-6.8-2.3-13.9-3.5-21-4C62.7,92.4,60.5,92.3,58.4,92.3z M51.4,37.1c0,1.1,0.1,2.1,0.2,3
		c0.4,2.9,1.2,5.7,2.2,8.5c0.1,0.2,0.2,0.4,0.3,0.6c2,2.3,3.9,4.7,5.5,7.2c0.1,0.1,0.1,0.3,0.2,0.3c0.2,0,0.2-0.2,0.2-0.3
		c1.8-3.6,4.1-6.9,6.9-9.8c0.2-0.2,0.4-0.5,0.5-0.8c0.7-2.4,1.3-4.7,1.4-7.2c0.1-1.5,0.1-2.9-0.3-4.3c-0.9-2.6-2.3-4.9-4.4-6.7
		c-2.5-2.1-5.3-2.1-7.9-0.1c-0.8,0.7-1.6,1.4-2.2,2.3C52.4,32,51.2,34.4,51.4,37.1z"/>
</g>
</svg>
