<?xml version="1.0" encoding="utf-8"?>
<!-- Generator: Adobe Illustrator 19.0.0, SVG Export Plug-In . SVG Version: 6.00 Build 0)  -->
<svg version="1.1" id="Layer_1" xmlns="http://www.w3.org/2000/svg" xmlns:xlink="http://www.w3.org/1999/xlink" x="0px" y="0px"
	 viewBox="-213 134.2 212.8 212.8" style="enable-background:new -213 134.2 212.8 212.8;" xml:space="preserve">
<style type="text/css">
	.st0{fill:#FFFFFF;stroke:#000000;stroke-miterlimit:10;}
	.st1{display:none;}
	.st2{display:inline;}
	.st3{fill:none;stroke:#000000;stroke-width:1.4173;stroke-miterlimit:10;}
</style>
<g id="Pawn">
	<path id="XMLID_193_" d="M-131.7,326.6c2.3,2.8,2.9,3.9,2.9,7.5c0,2.9-0.9,2.8,1,5.5c0,1.6,0,3.2,0,4.9c-0.8,0.8-1.8,1.1-2.9,1.2
		c-10.4,1.3-20.8,1.4-31.2,1.2c-7.9-0.1-15.8-0.5-23.7-1.2c-6.5-0.6-7.5-2.2-4.6-8.2c1.2-2.5,0.8-2,0.6-4.5c-0.2-3.8,0.2-4.2,2.5-7
		c0.4-0.3-0.7-0.5-1-0.8c-2.2-1.9-2.6-3.9-1.4-6.6c0.8-1.8,2.1-3.3,3.5-4.6c1.8-1.7,3.7-3.2,5.6-4.8c1.5-1.3,3-2.7,3.9-4.6
		c0.4-0.7,0.3-1.2-0.5-1.6c-0.7-0.3-1.3-0.8-1.9-1.3c-1.2-1-1.3-2-0.4-3.2c0.9-1.2,1.8-2.5,2.8-3.6c3.8-4.6,5.8-10,7-15.7
		c0.9-4.3,1.4-8.7,1.6-13c0-0.1,0-0.2,0-0.3c0.2-2.2,0.2-2.3-2.1-2.3c-2.6-0.1-5.3-0.2-7.9-0.6c-2-0.3-2.2-0.6-1.1-2.2
		c1.9-2.7,4.3-4.8,7-6.7c0.8-0.6,1.6-1.1,2.4-1.6c0.6-0.4,0.6-0.6,0-0.9c-2.5-1.8-4.4-4.2-5.7-7c-4.6-10.6,1.2-22.6,12.6-24.8
		c1-0.2,2-0.3,2.9-0.3c8.7,0,16.3,6.7,17.2,15.2c0.8,7.4-1.8,13.2-7.9,17.5c-0.6,0.4-0.5,0.6,0,0.9c3.1,2,5.9,4.2,8.3,7
		c0.4,0.4,0.7,0.9,1,1.4c0.4,0.8,0.2,1.2-0.7,1.4c-1.5,0.4-3,0.5-4.5,0.6c-1.8,0.1-3.7,0.2-5.5,0.3c-0.6,0-0.9,0.2-0.9,0.9
		c0.4,8.1,1.5,16.1,4.8,23.7c1.3,2.8,3.1,5.2,5,7.6c0.7,0.9,1.5,1.9,2.2,2.9c0.9,1.2,0.7,2.1-0.4,3.1c-0.6,0.5-1.3,1-2,1.4
		c-0.7,0.3-0.7,0.7-0.4,1.3c0.7,1.5,1.7,2.7,3,3.8c2,1.7,4,3.4,6,5.1c1.7,1.5,3.3,3.2,4.3,5.3c1.3,2.6,1,4.5-1.1,6.6
		C-131.6,325.4-132.2,326.2-131.7,326.6z"/>
</g>
<g id="Pawn_1_">
	<path id="XMLID_1_" class="st0" d="M-25.3,326.6c2.3,2.8,2.9,3.9,2.9,7.5c0,2.9-0.9,2.8,1,5.5c0,1.6,0,3.2,0,4.9
		c-0.8,0.8-1.8,1.1-2.9,1.2c-10.4,1.3-20.8,1.4-31.2,1.2c-7.9-0.1-15.8-0.5-23.7-1.2c-6.5-0.6-7.5-2.2-4.6-8.2
		c1.2-2.5,0.8-2,0.6-4.5c-0.2-3.8,0.2-4.2,2.5-7c0.4-0.3-0.7-0.5-1-0.8c-2.2-1.9-2.6-3.9-1.4-6.6c0.8-1.8,2.1-3.3,3.5-4.6
		c1.8-1.7,3.7-3.2,5.6-4.8c1.5-1.3,3-2.7,3.9-4.6c0.4-0.7,0.3-1.2-0.5-1.6c-0.7-0.3-1.3-0.8-1.9-1.3c-1.2-1-1.3-2-0.4-3.2
		c0.9-1.2,1.8-2.5,2.8-3.6c3.8-4.6,5.8-10,7-15.7c0.9-4.3,1.4-8.7,1.6-13c0-0.1,0-0.2,0-0.3c0.2-2.2,0.2-2.3-2.1-2.3
		c-2.6-0.1-5.3-0.2-7.9-0.6c-2-0.3-2.2-0.6-1.1-2.2c1.9-2.7,4.3-4.8,7-6.7c0.8-0.6,1.6-1.1,2.4-1.6c0.6-0.4,0.6-0.6,0-0.9
		c-2.5-1.8-4.4-4.2-5.7-7c-4.6-10.6,1.2-22.6,12.6-24.8c1-0.2,2-0.3,2.9-0.3c8.7,0,16.3,6.7,17.2,15.2c0.8,7.4-1.8,13.2-7.9,17.5
		c-0.6,0.4-0.5,0.6,0,0.9c3.1,2,5.9,4.2,8.3,7c0.4,0.4,0.7,0.9,1,1.4c0.4,0.8,0.2,1.2-0.7,1.4c-1.5,0.4-3,0.5-4.5,0.6
		c-1.8,0.1-3.7,0.2-5.5,0.3c-0.6,0-0.9,0.2-0.9,0.9c0.4,8.1,1.5,16.1,4.8,23.7c1.3,2.8,3.1,5.2,5,7.6c0.7,0.9,1.5,1.9,2.2,2.9
		c0.9,1.2,0.7,2.1-0.4,3.1c-0.6,0.5-1.3,1-2,1.4c-0.7,0.3-0.7,0.7-0.4,1.3c0.7,1.5,1.7,2.7,3,3.8c2,1.7,4,3.4,6,5.1
		c1.7,1.5,3.3,3.2,4.3,5.3c1.3,2.6,1,4.5-1.1,6.6C-25.2,325.4-25.8,326.2-25.3,326.6z"/>
</g>
<g id="Rook_1_" class="st1">
	<path id="XMLID_198_" class="st2" d="M-145.1,337.9c1.6-2,1.5-4.4,1.3-6.8c-0.6-6.6,1.6-11.8,5.6-17.3
		c9.2-12.5,14.9-26.5,14.7-42.4c-0.1-8-0.1-16,0-24c0-2.2-0.6-3.2-2.9-3.6c-7.7-1.4-9.1-2.6-8.4-10.3c0.5-6-1.5-11.5-1.5-17.3
		c0-3.2,1.3-5,4.2-4.4c6.6,1.3,13-0.8,19.5-0.8c2,0,4.1,0,6.1,0c1.4,0,2.5,0.3,3.8,1.2c2.2,1.6,4.9,1.3,7.3,0.2
		c5.1-2.2,10.2-1.2,15.3-0.1c1,0.2,1.5,0.9,1.5,1.8c-0.2,3.7,1.1,7.5-1.1,10.9c-0.5,0.8-0.3,1.6-0.3,2.5c0.1,2.9,0.2,5.8,0.1,8.6
		c-0.2,4.7-2.2,6.7-6.9,7.2c-4.6,0.5-4.7,0.5-4.5,5c0.3,10.4-0.6,20.9,0.6,31.3c1.5,12.6,6.3,23.9,14.3,33.7
		c3.6,4.4,6.1,8.8,5.5,14.7c-0.3,3.3,0,6.4,1.5,9.6c2.2,4.6,0.8,6.9-4.3,7.3c-16.9,1.6-33.8,2.5-50.7,1.6c-4.4-0.2-8.7-0.2-13.1-0.8
		c-2.6-0.4-5.3-0.6-7.8-1.5C-145.1,342.2-145.1,340.1-145.1,337.9z"/>
</g>
<g id="Rook" class="st1">
	<path id="XMLID_410_" class="st2" d="M-68.1,337.9c-1.6-2-1.5-4.4-1.3-6.8c0.6-6.6-1.6-11.8-5.6-17.3
		c-9.2-12.5-14.9-26.5-14.7-42.4c0.1-8,0.1-16,0-24c0-2.2,0.6-3.2,2.9-3.6c7.7-1.4,9.1-2.6,8.4-10.3c-0.5-6,1.5-11.5,1.5-17.3
		c0-3.2-1.3-5-4.2-4.4c-6.6,1.3-13-0.8-19.5-0.8c-2,0-4.1,0-6.1,0c-1.4,0-2.5,0.3-3.8,1.2c-2.2,1.6-4.9,1.3-7.3,0.2
		c-5.3-2.2-10.3-1.2-15.4,0c-1,0.2-1.5,0.9-1.5,1.8c0.2,3.7-1.1,7.5,1.1,10.9c0.5,0.8,0.3,1.6,0.3,2.5c-0.1,2.9-0.2,5.8-0.1,8.6
		c0.2,4.7,2.2,6.7,6.9,7.2c4.6,0.5,4.7,0.5,4.5,5c-0.3,10.4,0.6,20.9-0.6,31.3c-1.5,12.6-6.3,23.9-14.3,33.7
		c-3.6,4.4-6.1,8.8-5.5,14.7c0.3,3.3,0,6.4-1.5,9.6c-2.2,4.6-0.8,6.9,4.3,7.3c16.9,1.6,33.8,2.5,50.7,1.6c4.4-0.2,8.7-0.2,13.1-0.8
		c2.6-0.4,5.3-0.6,7.8-1.5C-68.1,342.2-68.1,340.1-68.1,337.9z"/>
</g>
<g id="Knight_1_" class="st1">
	<path id="XMLID_197_" class="st2" d="M-101.4,346.9c-11.4-0.2-22.8,0.4-34.1-1.3c-4.1-0.6-5.6-3.1-3.8-6.8c1.4-3.1,1.6-6.2,1.4-9.3
		c-0.3-5.9,1.2-10.9,5.6-15.3c6.1-6.2,9.3-14.2,12.3-22.2c0.6-1.6,0.2-2.5-1.5-2.7c-2.5-0.4-5-0.8-7.6-1.1c-2.6-0.3-3.4-1.7-3.3-4.1
		c0.3-4.5,1.9-8.7,3-13.1c2.6-10.8,5.8-21.4,7.6-32.3c0.7-4.2,0.5-4.2-3.8-4c-6.3,0.2-12.5-0.6-18.7-1.5c-1.6-0.2-2.9-1.2-3.1-2.8
		c-0.4-3.1-1.6-6-2.3-8.9c-0.9-3.5,0.1-5.9,3.1-7.9c9-6.4,17.9-13.1,26.9-19.5c2.8-2,4.9-4.4,5.6-7.8c0.1-0.6,0.4-1.2,0.6-1.8
		c2.9-8.6,3-8.7,12.1-7.8c0.2,0,0.4,0.1,0.6,0.1c6.1,0.2,9.8,2.9,12.1,8.8c2.1,5.4,5.5,10.3,8.4,15.4c2.3,4.1,4.3,8.3,5,13
		c0.5,3.1,2.3,5.7,3.7,8.5c2.3,4.7,3.8,9.5,3.1,14.8c-0.2,1.6,0.3,3.2,0.8,4.7c2.2,6.7,3.6,13.4,1.3,20.3c-0.4,1.1-0.1,2.5,0.1,3.8
		c0.7,6,0.3,11.9-0.5,17.9c-0.3,2.6-1.9,4.3-4.6,4.6c-3,0.4-5.9,0.9-8.9,1c-2.9,0.1-3.5,1.6-2.9,4c0.8,3.1,2.5,5.9,4.1,8.6
		c2.9,5.1,6.2,9.9,10.3,14.2c2.2,2.3,3.3,5.1,3.4,8.4c0.1,4.7-0.1,9.2,1.7,13.8c1.7,4.4,0.2,6.1-4.5,7c-6.5,1.3-13.2,0.9-19.7,1.5
		C-92.5,347.2-97,346.9-101.4,346.9z"/>
</g>
<g id="Knight" class="st1">
	<path id="XMLID_357_" class="st2" d="M-111.8,346.9c11.4-0.2,22.8,0.4,34.1-1.3c4.1-0.6,5.6-3.1,3.8-6.8c-1.4-3.1-1.6-6.2-1.4-9.3
		c0.3-5.9-1.2-10.9-5.6-15.3C-87,308-90.2,300-93.2,292c-0.6-1.6-0.2-2.5,1.5-2.7c2.5-0.4,5-0.8,7.6-1.1s3.4-1.7,3.3-4.1
		c-0.3-4.5-1.9-8.7-3-13.1c-2.6-10.8-5.8-21.4-7.6-32.3c-0.7-4.2-0.5-4.2,3.8-4c6.3,0.2,12.5-0.6,18.7-1.5c1.6-0.2,2.9-1.2,3.1-2.8
		c0.4-3.1,1.6-6,2.3-8.9c0.9-3.5-0.1-5.9-3.1-7.9c-9-6.4-17.9-13.1-26.9-19.5c-2.8-2-4.9-4.4-5.6-7.8c-0.1-0.6-0.4-1.2-0.6-1.8
		c-2.9-8.6-3-8.7-12.1-7.8c-0.2,0-0.4,0.1-0.6,0.1c-6.1,0.2-9.8,2.9-12.1,8.8c-2.1,5.4-5.5,10.3-8.4,15.4c-2.3,4.1-4.3,8.3-5,13
		c-0.5,3.1-2.3,5.7-3.7,8.5c-2.3,4.7-3.8,9.5-3.1,14.8c0.2,1.6-0.3,3.2-0.8,4.7c-2.2,6.7-3.6,13.4-1.3,20.3c0.4,1.1,0.1,2.5-0.1,3.8
		c-0.7,6-0.3,11.9,0.5,17.9c0.3,2.6,1.9,4.3,4.6,4.6c3,0.4,5.9,0.9,8.9,1c2.9,0.1,3.5,1.6,2.9,4c-0.8,3.1-2.5,5.9-4.1,8.6
		c-2.9,5.1-6.2,9.9-10.3,14.2c-2.2,2.3-3.3,5.1-3.4,8.4c-0.1,4.7,0.1,9.2-1.7,13.8c-1.7,4.4-0.2,6.1,4.5,7
		c6.5,1.3,13.2,0.9,19.7,1.5C-120.7,347.2-116.2,346.9-111.8,346.9z"/>
</g>
<g id="Bishop_1_" class="st1">
	<path id="XMLID_194_" class="st2" d="M-69.1,337.6c-1.5-3-1.7-5.9-1.4-9c0.4-4.7-1.1-8.4-4.2-11.9c-9.7-10.8-13.9-24-15.7-38.1
		c-1-7.7-0.3-15.3-0.6-23c-0.1-2,0.7-2.9,2.6-3.2c1.9-0.3,3.8-0.4,5.5-1.4c1.2-0.8,2.2-1.8,2-3.4c-0.2-1.5-1.2-2.3-2.5-2.5
		c-2.5-0.3-2.8-1.8-2.4-3.9c0.4-2-0.5-3.5-2.4-3.9c-2-0.5-2.5-1.9-2.6-3.5c-0.1-2.9-1.1-6,1.7-8.3c0.9-0.8,0.3-1.8-0.1-2.7
		c-1-2-0.5-3.5,1.2-5.1c6.8-6.4,6.9-15.1,0.2-21.7c-3.2-3.2-6.6-6-10-9c-1.9-1.6-3.3-3.1,0.2-4.5c1.1-0.4,1.6-1.5,1.3-2.6
		c-0.3-1.3-1.3-1.7-2.4-1.7c-5.1,0-10.2,0-15.4,0.1c-1.2,0-2.3,0.6-2.6,1.9c-0.4,1.5,0.7,2,1.8,2.6c2.4,1.3,2.5,2.3,0.2,4.1
		c-1.3,1.1-2.6,2.1-3.9,3.2l6.3,11l-1.7,2.8l-7.1-11.4c-1.2,1-2.3,2.1-3.4,3.2c-4.1,4-6.1,8.7-5.1,14.4c0.5,3,2.1,5.6,4.4,7.6
		c1.9,1.7,2.8,3.4,1.3,5.8c-0.5,0.8-0.5,1.7,0.2,2.4c2.7,2.7,1.5,6,1.6,9.1c0.1,1.4-0.9,2.1-2.1,2.5c-2.2,0.8-3,2.2-2.5,4.5
		c0.4,2.2-0.1,3.7-2.9,3.6c-1.6-0.1-3.4,0.2-3.8,2.2c-0.4,2,1.4,2.6,2.9,3.3c2.1,1,4.3,1.3,6.5,1.7c1.4,0.2,2.1,0.9,2.1,2.3
		c-0.3,11.5,1,23.1-2.3,34.3c-3.2,10.8-7.3,21.2-15.2,29.6c-2.4,2.5-3,5.8-3,9.2c0,3.6,0.1,7.1-1.8,10.5c-1.9,3.5-0.4,5.7,3.7,6.3
		c11.1,1.6,22.3,1.5,34.4,2c10-0.5,21-0.9,32-1.5C-68.7,345.2-66.7,342.4-69.1,337.6z"/>
</g>
<g id="Bishop" class="st1">
	<path id="XMLID_356_" class="st2" d="M-144.1,337.6c1.5-3,1.7-5.9,1.4-9c-0.4-4.7,1.1-8.4,4.2-11.9c9.7-10.8,13.9-24,15.7-38.1
		c1-7.7,0.3-15.3,0.6-23c0.1-2-0.7-2.9-2.6-3.2c-1.9-0.3-3.8-0.4-5.5-1.4c-1.2-0.8-2.2-1.8-2-3.4c0.2-1.5,1.2-2.3,2.5-2.5
		c2.5-0.3,2.8-1.8,2.4-3.9c-0.4-2,0.5-3.5,2.4-3.9c2-0.5,2.5-1.9,2.6-3.5c0.1-2.9,1.1-6-1.7-8.3c-0.9-0.8-0.3-1.8,0.1-2.7
		c1-2,0.5-3.5-1.2-5.1c-6.8-6.4-6.9-15.1-0.2-21.7c3.2-3.2,6.6-6,10-9c1.9-1.6,3.3-3.1-0.2-4.5c-1.1-0.4-1.6-1.5-1.3-2.6
		c0.3-1.3,1.3-1.7,2.4-1.7c5.1,0,10.2,0,15.4,0.1c1.2,0,2.3,0.6,2.6,1.9c0.4,1.5-0.7,2-1.8,2.6c-2.4,1.3-2.5,2.3-0.2,4.1
		c1.3,1.1,2.6,2.1,3.9,3.2l-6.3,11l1.7,2.7l7.1-11.4c1.2,1,2.3,2.1,3.4,3.2c4.1,4,6.1,8.7,5.1,14.4c-0.5,3-2.1,5.6-4.4,7.6
		c-1.9,1.7-2.8,3.4-1.3,5.8c0.5,0.8,0.5,1.7-0.2,2.4c-2.7,2.7-1.5,6-1.6,9.1c-0.1,1.4,0.9,2.1,2.1,2.5c2.2,0.8,3,2.2,2.5,4.5
		c-0.4,2.2,0.1,3.7,2.9,3.6c1.6-0.1,3.4,0.2,3.8,2.2c0.4,2-1.4,2.6-2.9,3.3c-2.1,1-4.3,1.3-6.5,1.7c-1.4,0.2-2.1,0.9-2.1,2.3
		c0.3,11.5-1,23.1,2.3,34.3c3.2,10.8,7.3,21.2,15.2,29.6c2.4,2.5,3,5.8,3,9.2c0,3.6-0.1,7.1,1.8,10.5c1.9,3.5,0.4,5.7-3.7,6.3
		c-11.1,1.6-22.3,1.5-34.4,2c-10-0.5-21-0.9-32-1.5C-144.5,345.2-146.5,342.4-144.1,337.6z"/>
</g>
<g id="Queen" class="st1">
	<path id="XMLID_195_" class="st2" d="M-91.2,260.1c-0.1,11.1,0,22.2,4,32.8c3,8.1,7.1,15.5,12.6,22.1c3.1,3.7,4.7,7.7,4.5,12.5
		c-0.1,3.7-0.1,7.3,1.6,10.9c1.8,3.7,0.1,6.1-4.1,6.6c-16.4,2-32.9,2.5-49.4,1.4c-5.8-0.4-11.7-0.2-17.6-0.7
		c-5.4-0.5-7.2-2.5-5.1-7.4c1.5-3.4,1.6-6.8,1.4-10.3c-0.4-5.4,1.3-9.8,4.9-14c10.9-12.6,15.8-27.5,15.7-44.2
		c-0.1-11.1-0.1-22.2,0-33.3c0-2.6-0.8-3.7-3.4-3.8c-1.7-0.1-3.4-0.4-4.9-1.3c-1.1-0.7-2-1.6-1.9-3.1s1.1-2.5,2.4-2.6
		c2.5-0.3,2.8-1.9,2.7-3.8c-0.1-1.5,0.2-2.7,1.5-3.7c3.7-2.7,4.5-4.4,2.8-8.7c-0.9-2.3-1.4-4.2-0.1-6.5c0.8-1.4,0.2-3.3-0.3-5
		c-1.7-4.9-4.7-8.8-8.4-12.3c-1.2-1.1-2.5-2-3.3-3.5c-1.3-2.5,0-5.5,2.8-6.4c0.7-0.2,1.5-0.3,2.2-0.2c4.5,0.9,7.6-0.7,9.2-5.1
		c0.4-1,1.2-1.7,2.2-2.2c3.6-1.9,4.4-4.2,2.8-7.8c-2.5-5.6-2-9.2,1.8-11.9c4.2-3,11.7-2.7,15.2,0.6c3,2.9,3.6,6.5,1.6,10.2
		c-0.8,1.5-1.7,3-1.6,4.8c0.1,1.3,0.2,2.7,1.7,3.1c2.7,0.7,4.1,2.7,5.1,4.9c1.3,2.9,3.5,3.9,6.5,3.2c1.3-0.3,2.5-0.2,3.8,0.2
		c4.3,1.4,5,5.6,1.5,8.6c-4.4,3.7-7.8,8.2-9.6,13.7c-0.8,2.3-1.8,4.6,0.2,6.9c0.8,0.9,0.1,2-0.3,3c-1.1,2.3-0.6,4.8-0.8,7.3
		c-0.1,1.3,1,1.7,2.1,2.1c2.3,0.8,3.4,2.3,2.8,4.9c-0.5,1.9-0.1,3.4,2.4,3.4c1.4,0,2.5,0.7,2.8,2.2c0.3,1.6-0.6,2.6-1.9,3.4
		c-1.5,0.9-3.2,1.2-4.9,1.4c-2.8,0.3-3.9,1.7-3.7,4.5c0.2,3.8,0.3,7.7,0.4,11.5C-91.2,252.4-91.2,256.2-91.2,260.1z"/>
</g>
<g id="King" class="st1">
	<path id="XMLID_196_" class="st2" d="M-107.3,346.9c-9.2,0.5-19.3-0.9-29.4-1.3c-1.2,0-2.3-0.3-3.5-0.6c-4.2-0.9-5.9-3.7-3.7-7.4
		c1.6-2.7,1.6-5.3,1.4-8c-0.6-6.5,1.6-11.5,5.6-16.6c9.4-11.9,14.5-25.9,14.9-41.1c0.3-11.8,0.9-23.6,0.3-35.5
		c-0.1-2.8-0.9-4.2-3.9-4.1c-1.1,0-2.3-0.3-3.4-0.7c-1.5-0.5-2.5-1.5-2.5-3.3c0-1.7,1.1-2.5,2.6-2.7c2.2-0.3,2.7-1.8,2.4-3.7
		c-0.2-1.6-0.1-2.9,1.4-3.9c3.8-2.5,4.7-4.6,3.1-8.9c-0.8-2.2-1.7-4.1,0.3-6.1c0.7-0.7,0.2-1.8,0-2.8c-1.3-5.1-3.5-9.6-7.3-13.2
		c-1.3-1.3-2.6-2.5-3.9-3.8c-1.1-1.2-2-2.6-1.4-4.3c0.7-1.9,2.1-3.1,4.1-3.1c2.3,0,3.1-1.1,3.4-3.3c0.7-6.6,1.2-7.1,7.9-7
		c2.6,0,4.4-0.3,4.2-3.6c-0.1-1.9-0.8-2.6-2.7-2.6c-4.1,0-4.4-0.4-4.4-4.3c0-3.4,0.1-6.8,0-10.2c0-2.8,1.2-4.1,3.9-3.4
		c2.9,0.7,3.9,0.3,3.3-3c-0.7-3.5,0-4.1,3.6-4.2c3.3,0,6.6-0.1,9.9,0c3.3,0.1,4,0.9,3.6,4.1c-0.4,3.4-0.2,3.8,3.3,3.2
		c2.7-0.5,3.8,0.7,3.9,3.2c0.1,3.8,0,7.7,0,11.5c0,2.5-1.1,3.4-3.6,3.3c-1.7-0.1-3.9-0.7-3.9,2.3c0,2.7,1.1,3.9,4.1,3.9
		c6.8,0,7.9,1.1,8.5,7.5c0.2,1.7,0.8,2.5,2.5,2.7c2.4,0.4,4.4,1.5,5,3.9c0.7,2.6-1.4,4-3.1,5.4c-4.7,4-8.4,8.7-9.7,15
		c-0.2,0.8-0.7,2.1-0.3,2.5c3.5,3.3,0.1,6.4-0.3,9.6c-0.4,3-0.3,5.3,3.2,6.1c1.8,0.4,2.1,2,1.8,3.6c-0.4,2.2,0,3.8,2.6,4
		c1.3,0.1,2.1,0.9,2.3,2.3c0.1,1.6-0.7,2.6-2,3.3c-1.8,0.9-3.7,0.8-5.6,1.2c-1.6,0.3-2.6,1.1-2.5,2.8c1.1,15.2-1.4,30.5,1.1,45.6
		c2,12.7,6.7,24.2,15.4,33.8c2.8,3.1,4.1,6.5,4,10.7c-0.1,4.4-0.5,8.7,1.8,13c1.9,3.7,0.4,5.9-3.7,6.3
		C-84.1,346.3-95.2,347.1-107.3,346.9z"/>
</g>
<g>
	<g>
		<line class="st3" x1="-126.9" y1="261.9" x2="-94.8" y2="261.9"/>
		<g>
			<path d="M-86.3,261.9c-4,1.5-9,4-12.1,6.7l2.4-6.7l-2.4-6.7C-95.3,257.8-90.3,260.4-86.3,261.9z"/>
		</g>
	</g>
</g>
<g>
	<g>
		<line class="st3" x1="-85.4" y1="283.2" x2="-117.4" y2="283.2"/>
		<g>
			<path d="M-126,283.2c4-1.5,9-4,12.1-6.7l-2.4,6.7l2.4,6.7C-117,287.3-122,284.7-126,283.2z"/>
		</g>
	</g>
</g>
</svg>
